<svg width="100" height="100" viewBox="0 0 100 100" fill="none" xmlns="http://www.w3.org/2000/svg">
<g clip-path="url(#clip0_42_10)">
<path d="M28.4063 41.9625L25.6875 50H18.75L30.3875 18.75H38.4125L50 50H42.7063L39.9875 41.9625H28.4063ZM38.6187 37.3625L34.375 24.725H34.0688L29.825 37.3625H38.6187Z" fill="black"/>
<path d="M0 12.5C0 9.18479 1.31696 6.00537 3.66117 3.66117C6.00537 1.31696 9.18479 0 12.5 0L56.25 0C59.5652 0 62.7446 1.31696 65.0888 3.66117C67.433 6.00537 68.75 9.18479 68.75 12.5V31.25H87.5C90.8152 31.25 93.9946 32.567 96.3388 34.9112C98.683 37.2554 100 40.4348 100 43.75V87.5C100 90.8152 98.683 93.9946 96.3388 96.3388C93.9946 98.683 90.8152 100 87.5 100H43.75C40.4348 100 37.2554 98.683 34.9112 96.3388C32.567 93.9946 31.25 90.8152 31.25 87.5V68.75H12.5C9.18479 68.75 6.00537 67.433 3.66117 65.0888C1.31696 62.7446 0 59.5652 0 56.25V12.5ZM12.5 6.25C10.8424 6.25 9.25268 6.90848 8.08058 8.08058C6.90848 9.25268 6.25 10.8424 6.25 12.5V56.25C6.25 57.9076 6.90848 59.4973 8.08058 60.6694C9.25268 61.8415 10.8424 62.5 12.5 62.5H56.25C57.9076 62.5 59.4973 61.8415 60.6694 60.6694C61.8415 59.4973 62.5 57.9076 62.5 56.25V12.5C62.5 10.8424 61.8415 9.25268 60.6694 8.08058C59.4973 6.90848 57.9076 6.25 56.25 6.25H12.5ZM57.1125 68.7187C58.3167 70.5979 59.6292 72.3604 61.05 74.0062C56.375 77.6 50.5938 80.2625 43.75 82.0813C44.8625 83.4375 46.5687 86.05 47.2187 87.5C54.25 85.2563 60.2187 82.225 65.2562 78.1625C70.1125 82.3187 76.125 85.4437 83.5688 87.3625C84.4 85.775 86.1562 83.1563 87.5 81.8C80.4688 80.2188 74.6438 77.4625 69.875 73.775C74.1313 69.1062 77.5125 63.4562 80.0062 56.5437H87.5V50H68.75V56.5437H73.5313C71.5438 61.8187 68.9063 66.2063 65.5813 69.8563C64.6623 68.8784 63.7964 67.8519 62.9875 66.7813C61.2224 67.9091 59.2022 68.5754 57.1125 68.7187Z" fill="black"/>
</g>
<defs>
<clipPath id="clip0_42_10">
<rect width="100" height="100" fill="white"/>
</clipPath>
</defs>
</svg>
